<svg width="25" height="21" viewBox="0 0 25 21" fill="none" xmlns="http://www.w3.org/2000/svg">
<path d="M22.2173 5.86119C22.2173 6.10299 22.2173 6.29643 22.2173 6.53823C22.2173 13.2603 17.1395 20.9495 7.806 20.9495C4.90439 20.9495 2.24459 20.1274 0.0200224 18.6766C0.406903 18.725 0.793784 18.7733 1.22902 18.7733C3.59867 18.7733 5.77487 17.9512 7.51584 16.5971C5.29127 16.5488 3.40523 15.098 2.77655 13.0668C3.11507 13.1152 3.40523 13.1636 3.74375 13.1636C4.17899 13.1636 4.66259 13.0668 5.04947 12.9701C2.72819 12.4865 0.987224 10.4554 0.987224 7.98904V7.94068C1.66427 8.32756 2.48639 8.521 3.30851 8.56936C1.90607 7.65052 1.03558 6.10299 1.03558 4.36203C1.03558 3.39483 1.27738 2.52435 1.71263 1.79894C4.22735 4.84563 7.99944 6.87675 12.2068 7.11855C12.11 6.73167 12.0617 6.34479 12.0617 5.95791C12.0617 3.15303 14.3346 0.880102 17.1395 0.880102C18.5903 0.880102 19.896 1.46042 20.8632 2.47599C21.9755 2.23418 23.0878 1.79894 24.055 1.21862C23.6681 2.42763 22.8943 3.39483 21.8304 4.02351C22.846 3.92679 23.8616 3.63663 24.732 3.24975C24.055 4.26531 23.1845 5.13579 22.2173 5.86119Z" fill="#D8D8D8"/>
</svg>
