<svg width="22" height="23" viewBox="0 0 22 23" fill="none" xmlns="http://www.w3.org/2000/svg">
<path d="M5.11541 22.1763H0.617921V7.7166H5.11541V22.1763ZM2.84249 5.7822C1.44004 5.7822 0.2794 4.57319 0.2794 3.12239C0.2794 1.71995 1.44004 0.559306 2.84249 0.559306C4.29329 0.559306 5.45393 1.71995 5.45393 3.12239C5.45393 4.57319 4.29329 5.7822 2.84249 5.7822ZM21.8964 22.1763H17.4472V15.1641C17.4472 13.4715 17.3989 11.3436 15.0776 11.3436C12.7563 11.3436 12.4178 13.1329 12.4178 15.019V22.1763H7.9203V7.7166H12.2243V9.69936H12.2727C12.9014 8.58708 14.3522 7.37808 16.5284 7.37808C21.0742 7.37808 21.9447 10.3764 21.9447 14.2452V22.1763H21.8964Z" fill="#D8D8D8"/>
</svg>
