<svg width="25" height="26" viewBox="0 0 25 26" fill="none" xmlns="http://www.w3.org/2000/svg">
<g id="ep:arrow-down-bold">
<path id="Vector" d="M2.94503 8.85855C3.23195 8.57172 3.62104 8.41058 4.02674 8.41058C4.43244 8.41058 4.82154 8.57172 5.10845 8.85855L12.682 16.432L20.2555 8.85855C20.544 8.57985 20.9305 8.42563 21.3317 8.42912C21.7328 8.4326 22.1166 8.59351 22.4002 8.87718C22.6839 9.16086 22.8448 9.5446 22.8483 9.94576C22.8518 10.3469 22.6976 10.7334 22.4189 11.022L13.7637 19.6772C13.4767 19.964 13.0877 20.1251 12.682 20.1251C12.2763 20.1251 11.8872 19.964 11.6002 19.6772L2.94503 11.022C2.6582 10.735 2.49707 10.346 2.49707 9.94026C2.49707 9.53456 2.6582 9.14546 2.94503 8.85855Z" fill="white"/>
</g>
</svg>
