<svg width="25" height="21" viewBox="0 0 25 21" fill="none" xmlns="http://www.w3.org/2000/svg">
<path d="M22.2179 5.15563C22.2179 5.39743 22.2179 5.59087 22.2179 5.83267C22.2179 12.5547 17.1401 20.244 7.80659 20.244C4.90498 20.244 2.24517 19.4219 0.0206099 17.9711C0.407491 18.0194 0.794371 18.0678 1.22961 18.0678C3.59926 18.0678 5.77546 17.2457 7.51643 15.8916C5.29186 15.8432 3.40582 14.3924 2.77714 12.3613C3.11566 12.4096 3.40582 12.458 3.74434 12.458C4.17958 12.458 4.66318 12.3613 5.05006 12.2646C2.72878 11.781 0.987812 9.74984 0.987812 7.28347V7.23511C1.66485 7.62199 2.48697 7.81543 3.3091 7.86379C1.90665 6.94495 1.03617 5.39743 1.03617 3.65646C1.03617 2.68926 1.27797 1.81878 1.71321 1.09338C4.22794 4.14006 8.00003 6.17119 12.2074 6.41299C12.1106 6.02611 12.0623 5.63923 12.0623 5.25235C12.0623 2.44746 14.3352 0.174536 17.1401 0.174536C18.5909 0.174536 19.8966 0.754857 20.8638 1.77042C21.9761 1.52862 23.0884 1.09338 24.0556 0.513056C23.6687 1.72206 22.8949 2.68926 21.831 3.31794C22.8466 3.22122 23.8621 2.93106 24.7326 2.54418C24.0556 3.55974 23.1851 4.43022 22.2179 5.15563Z" fill="#D8D8D8"/>
</svg>
