<svg width="50" height="50" viewBox="0 0 50 50" fill="none" xmlns="http://www.w3.org/2000/svg">
<g id="ic:baseline-people">
<path id="Vector" d="M33.3929 22.8212C36.7728 22.8212 39.4808 20.0928 39.4808 16.7128C39.4808 13.3329 36.7728 10.6045 33.3929 10.6045C30.0129 10.6045 27.2845 13.3329 27.2845 16.7128C27.2845 20.0928 30.0129 22.8212 33.3929 22.8212ZM17.104 22.8212C20.4839 22.8212 23.1919 20.0928 23.1919 16.7128C23.1919 13.3329 20.4839 10.6045 17.104 10.6045C13.724 10.6045 10.9956 13.3329 10.9956 16.7128C10.9956 20.0928 13.724 22.8212 17.104 22.8212ZM17.104 26.8934C12.3598 26.8934 2.85117 29.2756 2.85117 34.0198V39.1101H31.3567V34.0198C31.3567 29.2756 21.8481 26.8934 17.104 26.8934ZM33.3929 26.8934C32.8024 26.8934 32.1305 26.9341 31.4178 26.9952C33.7797 28.7055 35.429 31.0063 35.429 34.0198V39.1101H47.6456V34.0198C47.6456 29.2756 38.137 26.8934 33.3929 26.8934Z" fill="#F8F8F8"/>
</g>
</svg>
