<svg width="23" height="22" viewBox="0 0 23 22" fill="none" xmlns="http://www.w3.org/2000/svg">
<path d="M11.5579 5.32972C14.6045 5.32972 17.1193 7.84444 17.1193 10.8911C17.1193 13.9862 14.6045 16.4525 11.5579 16.4525C8.46282 16.4525 5.99645 13.9862 5.99645 10.8911C5.99645 7.84444 8.46282 5.32972 11.5579 5.32972ZM11.5579 14.5181C13.5406 14.5181 15.1365 12.9223 15.1365 10.8911C15.1365 8.90837 13.5406 7.31248 11.5579 7.31248C9.52674 7.31248 7.93086 8.90837 7.93086 10.8911C7.93086 12.9223 9.5751 14.5181 11.5579 14.5181ZM18.6184 5.13628C18.6184 5.86168 18.0381 6.442 17.3127 6.442C16.5873 6.442 16.007 5.86168 16.007 5.13628C16.007 4.41088 16.5873 3.83056 17.3127 3.83056C18.0381 3.83056 18.6184 4.41088 18.6184 5.13628ZM22.2938 6.442C22.3905 8.23133 22.3905 13.5993 22.2938 15.3886C22.1971 17.1296 21.8102 18.6287 20.5528 19.9345C19.2955 21.1918 17.748 21.5787 16.007 21.6754C14.2177 21.7722 8.8497 21.7722 7.06037 21.6754C5.31941 21.5787 3.82025 21.1918 2.51452 19.9345C1.25716 18.6287 0.870281 17.1296 0.773561 15.3886C0.676841 13.5993 0.676841 8.23133 0.773561 6.442C0.870281 4.70104 1.25716 3.15351 2.51452 1.89615C3.82025 0.63879 5.31941 0.251909 7.06037 0.155189C8.8497 0.0584687 14.2177 0.0584687 16.007 0.155189C17.748 0.251909 19.2955 0.63879 20.5528 1.89615C21.8102 3.15351 22.1971 4.70104 22.2938 6.442ZM19.9725 17.2747C20.5528 15.8722 20.4078 12.487 20.4078 10.8911C20.4078 9.34361 20.5528 5.9584 19.9725 4.5076C19.5856 3.58876 18.8602 2.81499 17.9414 2.47647C16.4906 1.89615 13.1054 2.04123 11.5579 2.04123C9.96198 2.04123 6.57677 1.89615 5.17433 2.47647C4.20713 2.86335 3.48173 3.58876 3.09485 4.5076C2.51452 5.9584 2.6596 9.34361 2.6596 10.8911C2.6596 12.487 2.51452 15.8722 3.09485 17.2747C3.48173 18.2419 4.20713 18.9673 5.17433 19.3541C6.57677 19.9345 9.96198 19.7894 11.5579 19.7894C13.1054 19.7894 16.4906 19.9345 17.9414 19.3541C18.8602 18.9673 19.634 18.2419 19.9725 17.2747Z" fill="#D8D8D8"/>
</svg>
