<svg width="22" height="23" viewBox="0 0 22 23" fill="none" xmlns="http://www.w3.org/2000/svg">
<path d="M5.1152 22.1758H0.617707V7.71611H5.1152V22.1758ZM2.84227 5.78171C1.43983 5.78171 0.279186 4.57271 0.279186 3.1219C0.279186 1.71946 1.43983 0.558817 2.84227 0.558817C4.29307 0.558817 5.45372 1.71946 5.45372 3.1219C5.45372 4.57271 4.29307 5.78171 2.84227 5.78171ZM21.8962 22.1758H17.447V15.1636C17.447 13.471 17.3987 11.3431 15.0774 11.3431C12.7561 11.3431 12.4176 13.1324 12.4176 15.0185V22.1758H7.92008V7.71611H12.2241V9.69888H12.2725C12.9012 8.58659 14.352 7.37759 16.5282 7.37759C21.074 7.37759 21.9445 10.3759 21.9445 14.2447V22.1758H21.8962Z" fill="#D8D8D8"/>
</svg>
