<svg width="39" height="40" viewBox="0 0 39 40" fill="none" xmlns="http://www.w3.org/2000/svg">
<path d="M19.4376 26.5397L11.3767 18.4729L13.6354 16.1352L17.8271 20.3299L17.8319 7.18579L21.0575 7.18697L21.0527 20.3311L25.2474 16.1394L27.5044 18.4788L19.4376 26.5397ZM9.75855 32.9873C8.87153 32.9869 8.11256 32.6711 7.48166 32.0397C6.85076 31.4084 6.53493 30.6486 6.53418 29.7605L6.53596 24.9222L9.76152 24.9234L9.75974 29.7617L29.1131 29.7688L29.1149 24.9305L32.3404 24.9317L32.3386 29.77C32.3383 30.657 32.0225 31.4165 31.3911 32.0485C30.7597 32.6805 30 32.9958 29.1119 32.9944L9.75855 32.9873Z" fill="white"/>
</svg>
