<svg width="38" height="38" viewBox="0 0 38 38" fill="none" xmlns="http://www.w3.org/2000/svg">
<g id="mingcute:time-fill" clip-path="url(#clip0_363_1284)">
<g id="Group">
<path id="Vector" d="M18.9739 3.19531C27.6243 3.19531 34.6363 10.2074 34.6363 18.8577C34.6363 27.5081 27.6243 34.5201 18.9739 34.5201C10.3236 34.5201 3.31149 27.5081 3.31149 18.8577C3.31149 10.2074 10.3236 3.19531 18.9739 3.19531ZM18.9739 9.46028C18.5585 9.46028 18.1601 9.62529 17.8664 9.91902C17.5727 10.2127 17.4077 10.6111 17.4077 11.0265V18.8577C17.4078 19.2731 17.5728 19.6714 17.8666 19.9651L22.5653 24.6638C22.8607 24.9491 23.2563 25.1069 23.667 25.1034C24.0777 25.0998 24.4705 24.9351 24.7609 24.6447C25.0513 24.3543 25.216 23.9615 25.2196 23.5508C25.2231 23.1401 25.0653 22.7445 24.78 22.4491L20.5401 18.2093V11.0265C20.5401 10.6111 20.3751 10.2127 20.0814 9.91902C19.7877 9.62529 19.3893 9.46028 18.9739 9.46028Z" fill="#F8F8F8"/>
</g>
</g>
<defs>
<clipPath id="clip0_363_1284">
<rect width="37.5898" height="37.5898" fill="white" transform="translate(0.178959 0.0634766)"/>
</clipPath>
</defs>
</svg>
