<svg width="25" height="21" viewBox="0 0 25 21" fill="none" xmlns="http://www.w3.org/2000/svg">
<path d="M22.2174 5.86168C22.2174 6.10348 22.2174 6.29692 22.2174 6.53872C22.2174 13.2608 17.1396 20.95 7.8061 20.95C4.90449 20.95 2.24469 20.1279 0.0201216 18.6771C0.407002 18.7255 0.793883 18.7738 1.22912 18.7738C3.59877 18.7738 5.77497 17.9517 7.51594 16.5976C5.29137 16.5493 3.40533 15.0985 2.77665 13.0673C3.11517 13.1157 3.40533 13.1641 3.74385 13.1641C4.17909 13.1641 4.66269 13.0673 5.04957 12.9706C2.72829 12.487 0.987324 10.4559 0.987324 7.98952V7.94116C1.66436 8.32805 2.48649 8.52149 3.30861 8.56985C1.90617 7.651 1.03568 6.10348 1.03568 4.36252C1.03568 3.39532 1.27748 2.52483 1.71273 1.79943C4.22745 4.84612 7.99954 6.87724 12.2069 7.11904C12.1101 6.73216 12.0618 6.34528 12.0618 5.9584C12.0618 3.15351 14.3347 0.88059 17.1396 0.88059C18.5904 0.88059 19.8961 1.46091 20.8633 2.47647C21.9756 2.23467 23.0879 1.79943 24.0551 1.21911C23.6682 2.42811 22.8944 3.39532 21.8305 4.024C22.8461 3.92728 23.8616 3.63712 24.7321 3.25024C24.0551 4.2658 23.1846 5.13628 22.2174 5.86168Z" fill="#D8D8D8"/>
</svg>
