<svg width="41" height="42" viewBox="0 0 41 42" fill="none" xmlns="http://www.w3.org/2000/svg">
<g id="basil:sort-outline">
<path id="Vector" d="M23.0585 13.401C23.2976 13.6398 23.6217 13.7739 23.9595 13.7739C24.2974 13.7739 24.6215 13.6398 24.8605 13.401L26.0845 12.177V29.5C26.0845 29.8382 26.2189 30.1625 26.458 30.4016C26.6971 30.6407 27.0214 30.775 27.3595 30.775C27.6977 30.775 28.022 30.6407 28.2611 30.4016C28.5002 30.1625 28.6345 29.8382 28.6345 29.5V12.177L29.8585 13.401C29.9753 13.5263 30.116 13.6267 30.2724 13.6964C30.4288 13.7661 30.5977 13.8036 30.7689 13.8066C30.94 13.8096 31.1101 13.7781 31.2689 13.714C31.4276 13.6499 31.5718 13.5544 31.6929 13.4334C31.814 13.3123 31.9094 13.1681 31.9735 13.0093C32.0377 12.8506 32.0692 12.6805 32.0661 12.5093C32.0631 12.3381 32.0257 12.1693 31.956 12.0129C31.8863 11.8565 31.7858 11.7157 31.6605 11.599L28.2605 8.199C28.0215 7.96024 27.6974 7.82613 27.3595 7.82613C27.0217 7.82613 26.6976 7.96024 26.4585 8.199L23.0585 11.599C22.8198 11.8381 22.6857 12.1621 22.6857 12.5C22.6857 12.8379 22.8198 13.1619 23.0585 13.401ZM15.0345 29.823L16.2585 28.599C16.3753 28.4737 16.516 28.3733 16.6724 28.3036C16.8288 28.2339 16.9977 28.1964 17.1689 28.1934C17.34 28.1904 17.5101 28.2219 17.6689 28.286C17.8276 28.3501 17.9718 28.4456 18.0929 28.5666C18.214 28.6877 18.3094 28.8319 18.3735 28.9907C18.4377 29.1495 18.4692 29.3195 18.4661 29.4907C18.4631 29.6619 18.4257 29.8307 18.356 29.9871C18.2863 30.1435 18.1858 30.2843 18.0605 30.401L14.6605 33.801C14.4215 34.0398 14.0974 34.1739 13.7595 34.1739C13.4217 34.1739 13.0976 34.0398 12.8585 33.801L9.45854 30.401C9.33327 30.2843 9.2328 30.1435 9.16311 29.9871C9.09342 29.8307 9.05595 29.6619 9.05293 29.4907C9.04991 29.3195 9.0814 29.1495 9.14553 28.9907C9.20966 28.8319 9.3051 28.6877 9.42617 28.5666C9.54724 28.4456 9.69146 28.3501 9.85022 28.286C10.009 28.2219 10.179 28.1904 10.3502 28.1934C10.5214 28.1964 10.6903 28.2339 10.8467 28.3036C11.0031 28.3733 11.1438 28.4737 11.2605 28.599L12.4845 29.823V12.5C12.4845 12.1619 12.6189 11.8376 12.858 11.5984C13.0971 11.3593 13.4214 11.225 13.7595 11.225C14.0977 11.225 14.422 11.3593 14.6611 11.5984C14.9002 11.8376 15.0345 12.1619 15.0345 12.5V29.823Z" fill="white"/>
</g>
</svg>
