<svg width="31" height="31" viewBox="0 0 31 31" fill="none" xmlns="http://www.w3.org/2000/svg">
<g id="ep:edit">
<path id="Vector" d="M25.125 15.5C25.125 15.2514 25.2238 15.0129 25.3996 14.8371C25.5754 14.6613 25.8139 14.5625 26.0625 14.5625C26.3111 14.5625 26.5496 14.6613 26.7254 14.8371C26.9012 15.0129 27 15.2514 27 15.5V25.8125C27 26.0611 26.9012 26.2996 26.7254 26.4754C26.5496 26.6512 26.3111 26.75 26.0625 26.75H5.4375C5.18886 26.75 4.9504 26.6512 4.77459 26.4754C4.59877 26.2996 4.5 26.0611 4.5 25.8125V5.1875C4.5 4.93886 4.59877 4.7004 4.77459 4.52459C4.9504 4.34877 5.18886 4.25 5.4375 4.25H15.75C15.9986 4.25 16.2371 4.34877 16.4129 4.52459C16.5887 4.7004 16.6875 4.93886 16.6875 5.1875C16.6875 5.43614 16.5887 5.6746 16.4129 5.85041C16.2371 6.02623 15.9986 6.125 15.75 6.125H6.375V24.875H25.125V15.5Z" fill="white"/>
<path id="Vector_2" d="M14.5186 16.7375L16.0655 16.5162L25.568 7.01562C25.6575 6.92914 25.7289 6.82569 25.7781 6.71132C25.8272 6.59694 25.853 6.47392 25.8541 6.34944C25.8552 6.22496 25.8315 6.10151 25.7844 5.98629C25.7372 5.87108 25.6676 5.7664 25.5796 5.67838C25.4916 5.59035 25.3869 5.52074 25.2717 5.4736C25.1565 5.42647 25.033 5.40275 24.9085 5.40383C24.784 5.40491 24.661 5.43077 24.5466 5.4799C24.4323 5.52904 24.3288 5.60046 24.2423 5.69L14.738 15.1906L14.5167 16.7375H14.5186ZM26.8936 4.3625C27.1549 4.62369 27.3623 4.93382 27.5037 5.27516C27.6452 5.61651 27.718 5.98238 27.718 6.35187C27.718 6.72137 27.6452 7.08724 27.5037 7.42859C27.3623 7.76993 27.1549 8.08006 26.8936 8.34125L17.1717 18.0631C17.0283 18.207 16.8421 18.3004 16.6411 18.3294L13.5473 18.7719C13.4032 18.7926 13.2561 18.7794 13.1179 18.7334C12.9797 18.6874 12.8541 18.6098 12.7512 18.5068C12.6482 18.4038 12.5706 18.2782 12.5246 18.14C12.4786 18.0018 12.4654 17.8548 12.4861 17.7106L12.9286 14.6169C12.957 14.4161 13.0498 14.2299 13.193 14.0862L22.9167 4.36437C23.4441 3.83711 24.1594 3.54091 24.9051 3.54091C25.6509 3.54091 26.3662 3.83711 26.8936 4.36437V4.3625Z" fill="white"/>
</g>
</svg>
