<svg width="31" height="31" viewBox="0 0 31 31" fill="none" xmlns="http://www.w3.org/2000/svg">
<g id="fluent-mdl2:view" clip-path="url(#clip0_574_729)">
<path id="Vector" d="M15.75 11.75C16.5215 11.75 17.249 11.8965 17.9326 12.1895C18.6162 12.4824 19.2119 12.8828 19.7197 13.3906C20.2275 13.8984 20.6328 14.499 20.9355 15.1924C21.2383 15.8857 21.3848 16.6133 21.375 17.375C21.375 18.1562 21.2285 18.8838 20.9355 19.5576C20.6426 20.2314 20.2422 20.8271 19.7344 21.3447C19.2266 21.8623 18.626 22.2676 17.9326 22.5605C17.2393 22.8535 16.5117 23 15.75 23C14.9688 23 14.2412 22.8535 13.5674 22.5605C12.8936 22.2676 12.2979 21.8672 11.7803 21.3594C11.2627 20.8516 10.8574 20.2559 10.5645 19.5723C10.2715 18.8887 10.125 18.1562 10.125 17.375C10.125 16.6035 10.2715 15.876 10.5645 15.1924C10.8574 14.5088 11.2578 13.9131 11.7656 13.4053C12.2734 12.8975 12.8691 12.4922 13.5527 12.1895C14.2363 11.8867 14.9688 11.7402 15.75 11.75ZM15.75 21.125C16.2676 21.125 16.751 21.0273 17.2002 20.832C17.6494 20.6367 18.0498 20.3682 18.4014 20.0264C18.7529 19.6846 19.0215 19.2891 19.207 18.8398C19.3926 18.3906 19.4902 17.9023 19.5 17.375C19.5 16.8574 19.4023 16.374 19.207 15.9248C19.0117 15.4756 18.7432 15.0752 18.4014 14.7236C18.0596 14.3721 17.6641 14.1035 17.2148 13.918C16.7656 13.7324 16.2773 13.6348 15.75 13.625C15.2324 13.625 14.749 13.7227 14.2998 13.918C13.8506 14.1133 13.4502 14.3818 13.0986 14.7236C12.7471 15.0654 12.4785 15.4609 12.293 15.9102C12.1074 16.3594 12.0098 16.8477 12 17.375C12 17.8926 12.0977 18.376 12.293 18.8252C12.4883 19.2744 12.7568 19.6748 13.0986 20.0264C13.4404 20.3779 13.8359 20.6465 14.2852 20.832C14.7344 21.0176 15.2227 21.1152 15.75 21.125ZM15.75 4.25C17.1465 4.25 18.5332 4.4209 19.9102 4.7627C21.2871 5.10449 22.5859 5.61719 23.8066 6.30078C25.0273 6.98438 26.1309 7.81445 27.1172 8.79102C28.1035 9.76758 28.9141 10.9102 29.5488 12.2188C29.9395 13.0293 30.2373 13.8643 30.4424 14.7236C30.6475 15.583 30.75 16.4668 30.75 17.375H28.875C28.875 16.2227 28.6992 15.1436 28.3477 14.1377C27.9961 13.1318 27.5127 12.2139 26.8975 11.3838C26.2822 10.5537 25.5498 9.81152 24.7002 9.15723C23.8506 8.50293 22.9473 7.95117 21.9902 7.50195C21.0332 7.05273 20.0127 6.71094 18.9287 6.47656C17.8447 6.24219 16.7852 6.125 15.75 6.125C14.6953 6.125 13.6357 6.24219 12.5713 6.47656C11.5068 6.71094 10.4912 7.05273 9.52441 7.50195C8.55762 7.95117 7.64941 8.50293 6.7998 9.15723C5.9502 9.81152 5.22266 10.5537 4.61719 11.3838C4.01172 12.2139 3.52344 13.1318 3.15234 14.1377C2.78125 15.1436 2.60547 16.2227 2.625 17.375H0.75C0.75 16.4766 0.852539 15.5977 1.05762 14.7383C1.2627 13.8789 1.56055 13.0391 1.95117 12.2188C2.57617 10.9297 3.38184 9.79199 4.36816 8.80566C5.35449 7.81934 6.46289 6.98438 7.69336 6.30078C8.92383 5.61719 10.2227 5.10938 11.5898 4.77734C12.957 4.44531 14.3438 4.26953 15.75 4.25Z" fill="white"/>
</g>
<defs>
<clipPath id="clip0_574_729">
<rect width="30" height="30" fill="white" transform="translate(0.75 0.5)"/>
</clipPath>
</defs>
</svg>
