<svg width="32" height="32" viewBox="0 0 32 32" fill="none" xmlns="http://www.w3.org/2000/svg">
<g id="ic:round-sort">
<path id="Vector" d="M5.33309 24H10.6664C11.3998 24 11.9998 23.4 11.9998 22.6667C11.9998 21.9333 11.3998 21.3333 10.6664 21.3333H5.33309C4.59976 21.3333 3.99976 21.9333 3.99976 22.6667C3.99976 23.4 4.59976 24 5.33309 24ZM3.99976 9.33333C3.99976 10.0667 4.59976 10.6667 5.33309 10.6667H26.6664C27.3998 10.6667 27.9998 10.0667 27.9998 9.33333C27.9998 8.6 27.3998 8 26.6664 8H5.33309C4.59976 8 3.99976 8.6 3.99976 9.33333ZM5.33309 17.3333H18.6664C19.3998 17.3333 19.9998 16.7333 19.9998 16C19.9998 15.2667 19.3998 14.6667 18.6664 14.6667H5.33309C4.59976 14.6667 3.99976 15.2667 3.99976 16C3.99976 16.7333 4.59976 17.3333 5.33309 17.3333Z" fill="white"/>
</g>
</svg>
