<svg width="23" height="23" viewBox="0 0 23 23" fill="none" xmlns="http://www.w3.org/2000/svg">
<path d="M11.5574 5.6236C14.6041 5.6236 17.1188 8.13833 17.1188 11.185C17.1188 14.2801 14.6041 16.7464 11.5574 16.7464C8.46233 16.7464 5.99596 14.2801 5.99596 11.185C5.99596 8.13833 8.46233 5.6236 11.5574 5.6236ZM11.5574 14.812C13.5401 14.812 15.136 13.2161 15.136 11.185C15.136 9.20225 13.5401 7.60637 11.5574 7.60637C9.52625 7.60637 7.93037 9.20225 7.93037 11.185C7.93037 13.2161 9.57461 14.812 11.5574 14.812ZM18.6179 5.43016C18.6179 6.15556 18.0376 6.73589 17.3122 6.73589C16.5868 6.73589 16.0065 6.15556 16.0065 5.43016C16.0065 4.70476 16.5868 4.12444 17.3122 4.12444C18.0376 4.12444 18.6179 4.70476 18.6179 5.43016ZM22.2933 6.73589C22.39 8.52521 22.39 13.8932 22.2933 15.6825C22.1966 17.4235 21.8097 18.9226 20.5524 20.2284C19.295 21.4857 17.7475 21.8726 16.0065 21.9693C14.2172 22.066 8.84921 22.066 7.05989 21.9693C5.31892 21.8726 3.81976 21.4857 2.51404 20.2284C1.25667 18.9226 0.869793 17.4235 0.773072 15.6825C0.676352 13.8932 0.676352 8.52521 0.773072 6.73589C0.869793 4.99492 1.25667 3.4474 2.51404 2.19004C3.81976 0.932674 5.31892 0.545793 7.05989 0.449073C8.84921 0.352353 14.2172 0.352353 16.0065 0.449073C17.7475 0.545793 19.295 0.932674 20.5524 2.19004C21.8097 3.4474 22.1966 4.99492 22.2933 6.73589ZM19.972 17.5685C20.5524 16.1661 20.4073 12.7809 20.4073 11.185C20.4073 9.63749 20.5524 6.25228 19.972 4.80148C19.5852 3.88264 18.8597 3.10888 17.9409 2.77036C16.4901 2.19004 13.1049 2.33512 11.5574 2.33512C9.96149 2.33512 6.57628 2.19004 5.17384 2.77036C4.20664 3.15724 3.48124 3.88264 3.09436 4.80148C2.51404 6.25228 2.65912 9.63749 2.65912 11.185C2.65912 12.7809 2.51404 16.1661 3.09436 17.5685C3.48124 18.5357 4.20664 19.2612 5.17384 19.648C6.57628 20.2284 9.96149 20.0833 11.5574 20.0833C13.1049 20.0833 16.4901 20.2284 17.9409 19.648C18.8597 19.2612 19.6335 18.5357 19.972 17.5685Z" fill="#D8D8D8"/>
</svg>
