<svg width="22" height="23" viewBox="0 0 22 23" fill="none" xmlns="http://www.w3.org/2000/svg">
<path d="M5.11443 22.4702H0.616944V8.01055H5.11443V22.4702ZM2.84151 6.07614C1.43907 6.07614 0.278423 4.86714 0.278423 3.41634C0.278423 2.01389 1.43907 0.853251 2.84151 0.853251C4.29231 0.853251 5.45295 2.01389 5.45295 3.41634C5.45295 4.86714 4.29231 6.07614 2.84151 6.07614ZM21.8954 22.4702H17.4463V15.458C17.4463 13.7654 17.3979 11.6376 15.0766 11.6376C12.7553 11.6376 12.4168 13.4269 12.4168 15.3129V22.4702H7.91932V8.01055H12.2234V9.99331H12.2717C12.9004 8.88103 14.3512 7.67202 16.5274 7.67202C21.0733 7.67202 21.9437 10.6704 21.9437 14.5392V22.4702H21.8954Z" fill="#D8D8D8"/>
</svg>
