<svg width="36" height="36" viewBox="0 0 36 36" fill="none" xmlns="http://www.w3.org/2000/svg">
<path id="Vector" d="M34.1865 35.6142L20.723 22.1507C19.648 23.0666 18.4117 23.7754 17.0142 24.2771C15.6167 24.7788 14.212 25.0296 12.8002 25.0296C9.35724 25.0296 6.44323 23.8378 4.05812 21.4541C1.67302 19.069 0.480469 16.1557 0.480469 12.7142C0.480469 9.27275 1.67159 6.35802 4.05382 3.97005C6.43749 1.58064 9.35007 0.385941 12.7916 0.385941C16.2345 0.385941 19.1499 1.57849 21.5379 3.9636C23.9259 6.3487 25.1199 9.26343 25.1199 12.7078C25.1199 14.2013 24.8554 15.6469 24.3265 17.0444C23.7961 18.4419 23.101 19.6373 22.241 20.6307L35.7045 34.092L34.1865 35.6142ZM12.8002 22.8774C15.6525 22.8774 18.0613 21.8956 20.0264 19.9319C21.9901 17.9682 22.972 15.5594 22.972 12.7056C22.972 9.85326 21.9901 7.44522 20.0264 5.48152C18.0627 3.51782 15.6547 2.53597 12.8023 2.53597C9.94993 2.53597 7.54118 3.51782 5.57605 5.48152C3.61235 7.44522 2.6305 9.85326 2.6305 12.7056C2.6305 15.558 3.61235 17.9661 5.57605 19.9298C7.53975 21.8934 9.94778 22.8774 12.8002 22.8774Z" fill="white"/>
</svg>
