<svg width="23" height="22" viewBox="0 0 23 22" fill="none" xmlns="http://www.w3.org/2000/svg">
<path d="M11.5577 5.32923C14.6044 5.32923 17.1191 7.84396 17.1191 10.8906C17.1191 13.9857 14.6044 16.4521 11.5577 16.4521C8.46262 16.4521 5.99625 13.9857 5.99625 10.8906C5.99625 7.84396 8.46262 5.32923 11.5577 5.32923ZM11.5577 14.5176C13.5404 14.5176 15.1363 12.9218 15.1363 10.8906C15.1363 8.90788 13.5404 7.312 11.5577 7.312C9.52654 7.312 7.93066 8.90788 7.93066 10.8906C7.93066 12.9218 9.5749 14.5176 11.5577 14.5176ZM18.6182 5.13579C18.6182 5.86119 18.0379 6.44151 17.3125 6.44151C16.5871 6.44151 16.0068 5.86119 16.0068 5.13579C16.0068 4.41039 16.5871 3.83007 17.3125 3.83007C18.0379 3.83007 18.6182 4.41039 18.6182 5.13579ZM22.2936 6.44151C22.3903 8.23084 22.3903 13.5988 22.2936 15.3881C22.1969 17.1291 21.81 18.6283 20.5526 19.934C19.2953 21.1913 17.7478 21.5782 16.0068 21.6749C14.2175 21.7717 8.8495 21.7717 7.06018 21.6749C5.31921 21.5782 3.82005 21.1913 2.51433 19.934C1.25696 18.6283 0.870083 17.1291 0.773362 15.3881C0.676642 13.5988 0.676642 8.23084 0.773362 6.44151C0.870083 4.70055 1.25696 3.15303 2.51433 1.89566C3.82005 0.638302 5.31921 0.251421 7.06018 0.154701C8.8495 0.0579804 14.2175 0.0579804 16.0068 0.154701C17.7478 0.251421 19.2953 0.638302 20.5526 1.89566C21.81 3.15303 22.1969 4.70055 22.2936 6.44151ZM19.9723 17.2742C20.5526 15.8717 20.4076 12.4865 20.4076 10.8906C20.4076 9.34312 20.5526 5.95791 19.9723 4.50711C19.5854 3.58827 18.86 2.81451 17.9412 2.47599C16.4904 1.89566 13.1052 2.04074 11.5577 2.04074C9.96178 2.04074 6.57657 1.89566 5.17413 2.47599C4.20693 2.86287 3.48153 3.58827 3.09465 4.50711C2.51433 5.95791 2.65941 9.34312 2.65941 10.8906C2.65941 12.4865 2.51433 15.8717 3.09465 17.2742C3.48153 18.2414 4.20693 18.9668 5.17413 19.3537C6.57657 19.934 9.96178 19.7889 11.5577 19.7889C13.1052 19.7889 16.4904 19.934 17.9412 19.3537C18.86 18.9668 19.6338 18.2414 19.9723 17.2742Z" fill="#D8D8D8"/>
</svg>
