<svg width="38" height="38" viewBox="0 0 38 38" fill="none" xmlns="http://www.w3.org/2000/svg">
<g id="lets-icons:date-fill">
<g id="Group">
<path id="Vector" d="M3.45233 14.1575C3.45233 11.2036 3.45233 9.72821 4.37015 8.8104C5.28797 7.89258 6.76337 7.89258 9.7173 7.89258H28.5122C31.4661 7.89258 32.9415 7.89258 33.8593 8.8104C34.7772 9.72821 34.7772 11.2036 34.7772 14.1575C34.7772 14.8952 34.7772 15.2649 34.5485 15.4951C34.3182 15.7238 33.947 15.7238 33.2109 15.7238H5.01857C4.28087 15.7238 3.91124 15.7238 3.681 15.4951C3.45233 15.2649 3.45233 14.8937 3.45233 14.1575ZM3.45233 28.2537C3.45233 31.2076 3.45233 32.683 4.37015 33.6009C5.28797 34.5187 6.76337 34.5187 9.7173 34.5187H28.5122C31.4661 34.5187 32.9415 34.5187 33.8593 33.6009C34.7772 32.683 34.7772 31.2076 34.7772 28.2537V20.4225C34.7772 19.6848 34.7772 19.3152 34.5485 19.0849C34.3182 18.8563 33.947 18.8563 33.2109 18.8563H5.01857C4.28087 18.8563 3.91124 18.8563 3.681 19.0849C3.45233 19.3152 3.45233 19.6864 3.45233 20.4225V28.2537Z" fill="#F8F8F8"/>
<path id="Vector_2" d="M11.2839 4.76074V9.45946M26.9463 4.76074V9.45946" stroke="#F8F8F8" stroke-width="3.13248" stroke-linecap="round"/>
</g>
</g>
</svg>
